# xmcd CD database file
#
# Track frame offsets:
#	150
#	21990
#	37512
#	57390
#	70270
#	83955
#	88104
#	101862
#	117630
#	141052
#	160710
#	190772
#
# Disc length: 2881 seconds
#
# Revision: 3
# Processed by: cddbd v1.5.1PL2 Copyright (c) Steve Scherf et al.
# Submitted via: CDex 1.51
#
DISCID=9f0b3f0c
DTITLE=Noel Akchote - Lust Corner
DYEAR=1997
DGENRE=Jazz
TTITLE0=New York
TTITLE1=Street Woman
TTITLE2=Chadology
TTITLE3=Body And Soul
TTITLE4=Extensions
TTITLE5=Free #1
TTITLE6=Interlude #2
TTITLE7=Chesire Hotel
TTITLE8=Peace Warriors
TTITLE9=Broken Shadows
TTITLE10=Pas-Vous?
TTITLE11=Dirt
EXTD=YEAR: 1997
EXTT0=
EXTT1=
EXTT2=
EXTT3=
EXTT4=
EXTT5=
EXTT6=
EXTT7=
EXTT8=
EXTT9=
EXTT10=
EXTT11=
PLAYORDER=
